<?xml version="1.0" encoding="UTF-8" standalone="no"?>
<!-- Created with Inkscape (http://www.inkscape.org/) -->

<svg
   width="30"
   height="30"
   viewBox="0 0 7.9375 7.9375"
   version="1.1"
   id="svg5"
   inkscape:version="1.1.2 (0a00cf5339, 2022-02-04)"
   sodipodi:docname="icon.svg"
   xmlns:inkscape="http://www.inkscape.org/namespaces/inkscape"
   xmlns:sodipodi="http://sodipodi.sourceforge.net/DTD/sodipodi-0.dtd"
   xmlns="http://www.w3.org/2000/svg"
   xmlns:svg="http://www.w3.org/2000/svg">
  <sodipodi:namedview
     id="namedview7"
     pagecolor="#ffffff"
     bordercolor="#666666"
     borderopacity="1.0"
     inkscape:pageshadow="2"
     inkscape:pageopacity="0.0"
     inkscape:pagecheckerboard="0"
     inkscape:document-units="px"
     showgrid="false"
     units="px"
     inkscape:zoom="6.4054776"
     inkscape:cx="-0.70252373"
     inkscape:cy="14.596882"
     inkscape:window-width="1366"
     inkscape:window-height="704"
     inkscape:window-x="0"
     inkscape:window-y="27"
     inkscape:window-maximized="1"
     inkscape:current-layer="layer1" />
  <defs
     id="defs2" />
  <g
     inkscape:label="Layer 1"
     inkscape:groupmode="layer"
     id="layer1">
    <path
       fill-rule="evenodd"
       clip-rule="evenodd"
       d="M 3.6945197,0.27148144 C 3.2201929,0.31765821 2.83694,0.41329297 2.4636208,0.57849273 2.1890375,0.69998305 1.8599717,0.8908499 1.7819816,0.97384814 1.7044274,1.0564352 1.7553005,1.191453 1.8708853,1.2094867 c 0.044105,0.00771 0.071098,-0.00514 0.2116918,-0.09614 0.1888611,-0.12195301 0.4818178,-0.26890476 0.6887256,-0.34551196 0.147828,-0.0548296 0.5123028,-0.1531544 0.5671899,-0.1531544 0.029093,0 0.02917,7.6245e-4 0.00312,0.0402655 C 3.1042502,1.0110894 2.9375431,1.4516793 2.8018266,2.0815167 l -0.024036,0.1115868 -0.098036,0.024245 c -0.2144222,0.052945 -0.3769131,0.206202 -0.4483068,0.4229501 -0.0084,0.023903 -0.055618,0.025615 -0.7269428,0.025615 -0.3951699,0 -0.71849498,-0.00428 -0.71849498,-0.00942 0,-0.026215 0.16971747,-0.3518258 0.24329698,-0.4668223 0.1050602,-0.1641199 0.11224,-0.2210912 0.036327,-0.2888486 -0.042005,-0.03761 -0.057796,-0.043007 -0.10646815,-0.03641 -0.0753765,0.010452 -0.0867024,0.020989 -0.18277809,0.176397 -0.77333542,1.2499941 -0.7435738,2.8440609 0.0759209,4.0654066 l 0.062308,0.092876 -0.0431722,0.083529 C 0.8119363,6.3979057 0.78988345,6.5358363 0.81108063,6.6596911 0.88194536,7.0729775 1.3267828,7.29837 1.6959639,7.1079828 l 0.082922,-0.042836 0.1299445,0.084215 c 0.595668,0.3859833 1.2226533,0.584192 1.9310514,0.6105444 1.30752,0.048576 2.540776,-0.59353 3.2712348,-1.7032975 C 7.5257567,5.4266428 7.7408089,4.6509757 7.7124241,3.8879453 7.686054,3.1796244 7.4878195,2.5527511 7.1017819,1.957165 L 7.0176,1.8272446 7.0603054,1.7443149 C 7.119502,1.6295927 7.1414459,1.4915078 7.120202,1.3678414 7.0493374,0.95421231 6.6045155,0.72917979 6.23472,0.91986674 L 6.151168,0.96295934 6.058266,0.90059074 C 5.5919358,0.58780519 5.0678637,0.38664923 4.4931284,0.29982147 4.3471907,0.27780397 3.8211116,0.25895631 3.6945041,0.27137863 Z M 4.0938902,0.59214015 C 4.4154183,0.7418163 4.7368688,1.4685308 4.8880339,2.3874743 c 0.016569,0.1007579 0.033682,0.2046342 0.038115,0.230901 l 0.0084,0.047719 -0.7568367,-0.00428 -0.7568444,-0.00428 -0.026759,-0.070508 C 3.3442489,2.4556429 3.2517203,2.3566412 3.0736484,2.2441806 3.0652473,2.2390404 3.1111421,2.0259332 3.1699031,1.800421 3.3630813,1.05826 3.6846717,0.55532724 3.9660459,0.55532724 c 0.028237,0 0.085963,0.0161918 0.1282487,0.0358105 z M 4.817877,0.6640183 c 0.1075106,0.0271578 0.2614293,0.0738486 0.3420175,0.10369641 0.3342232,0.12373488 0.8120582,0.39191149 0.7916388,0.44427369 -0.035471,0.091094 -0.054452,0.2099887 -0.047217,0.2963195 0.035705,0.4265226 0.4550044,0.6790299 0.8633204,0.5198785 0.019603,-0.00771 0.043328,0.018248 0.1096497,0.1197683 0.079989,0.1226298 0.268228,0.4767688 0.268228,0.5047833 0,0.00771 -0.407896,0.013022 -0.9570002,0.013022 H 5.2314904 L 5.1913519,2.4203378 C 5.0746624,1.7055915 4.8810485,1.1090973 4.6480428,0.74639114 4.6143607,0.69404604 4.5818454,0.6429089 4.5758557,0.63284254 4.5584314,0.60405698 4.6044038,0.60996836 4.8179315,0.66402688 Z M 6.6636809,1.1829544 C 6.9026762,1.3077859 6.8887211,1.6456559 6.6399556,1.7592816 6.4267081,1.8566812 6.1735709,1.6718628 6.196285,1.4354103 6.211687,1.2746226 6.3559522,1.1420293 6.515394,1.1420293 c 0.048073,0 0.094473,0.012765 0.1483024,0.040951 z M 1.2898491,1.3969525 c -0.054762,0.05483 -0.063008,0.1020173 -0.029015,0.167847 0.050485,0.097502 0.2008794,0.097502 0.251317,0 0.038972,-0.075219 0.015247,-0.1607363 -0.054452,-0.1967782 -0.065808,-0.034011 -0.1130413,-0.025958 -0.1678661,0.028957 z m 1.6747952,1.130123 C 3.1179019,2.6034942 3.1862541,2.7865478 3.1175985,2.936858 3.0033904,3.1867951 2.6665303,3.1994916 2.5399072,2.9586184 2.5043582,2.8909382 2.4985241,2.8652111 2.5035026,2.7951406 2.5199158,2.5614296 2.7569508,2.4236189 2.9646677,2.5271012 Z M 2.2311907,2.9844483 c 0.053052,0.1608905 0.1763762,0.3076452 0.3158808,0.3757967 l 0.083451,0.040694 -0.0084,0.4052676 c -0.007,0.362432 0.00311,0.708595 0.034226,1.1341753 l 0.00941,0.1282155 H 1.6682792 0.67079029 l -0.015402,-0.047633 C 0.62333972,4.9219966 0.56658572,4.6657712 0.54163139,4.5075793 0.52234001,4.3847012 0.51580583,4.2584389 0.51611698,4.0063257 0.51659927,3.6060099 0.54513184,3.3972207 0.64858187,3.0356711 l 0.0220139,-0.076933 H 1.4466616 c 0.7261338,0 0.7766181,0.00171 0.7845135,0.025616 z m 2.7377425,-0.00771 c 0.030337,0.09351 0.060907,1.0359961 0.045039,1.3902122 l -0.010891,0.243726 -0.048384,0.00771 c -0.088694,0.014393 -0.2107117,0.086271 -0.2933923,0.1729959 -0.073043,0.076504 -0.1529698,0.2112394 -0.1533276,0.2583929 -2.179e-4,0.026901 -1.5369552,0.026901 -1.5456441,0 -0.030337,-0.093407 -0.060908,-1.035919 -0.045039,-1.3895011 L 2.928107,3.417242 2.9996722,3.3989082 c 0.090273,-0.023131 0.2280117,-0.1114754 0.2895807,-0.185778 0.042628,-0.051317 0.1024543,-0.161336 0.1248416,-0.2292647 0.0084,-0.023903 0.058185,-0.025615 0.7786951,-0.025615 0.6032523,0 0.7715229,0.00428 0.7761669,0.018334 z m 2.3069223,0.0293 c 0.032204,0.099593 0.088912,0.355484 0.1135624,0.5133504 0.036405,0.2322117 0.036405,0.7456992 2.256e-4,0.9774397 C 7.3626505,4.6692075 7.3226685,4.85448 7.2829653,4.9912968 l -0.022403,0.076933 H 6.4808951 5.7012355 L 5.6592301,4.9718829 C 5.6060232,4.8497587 5.5012663,4.7346851 5.3885285,4.674621 l -0.087963,-0.046776 0.0084,-0.40615 c 0.007,-0.3633487 -0.00311,-0.7091263 -0.034227,-1.1350406 l -0.00941,-0.1282155 h 0.9974888 0.997481 z m -2.034416,1.9266682 c 0.05204,0.026387 0.094676,0.062197 0.1235348,0.1037992 0.039749,0.0574 0.044105,0.07462 0.044105,0.1782132 0,0.1036964 -0.00389,0.1208221 -0.044105,0.1782218 C 5.313401,5.4672167 5.1895861,5.5370901 5.1096591,5.5369444 4.9244152,5.5366703 4.7804921,5.3958097 4.7804921,5.2147179 c 0,-0.2426037 0.2441216,-0.3919714 0.4609474,-0.2820467 z M 2.7398609,5.6066893 c 0.1190076,0.7289248 0.3134071,1.3206986 0.5571475,1.6959043 0.055074,0.0849 0.062386,0.1032765 0.041461,0.1067807 -0.039594,0.006 -0.4053524,-0.090152 -0.56712,-0.1500362 C 2.4371262,7.1355946 1.9593145,6.8674095 1.9797182,6.815073 2.0151895,6.7239702 2.0341697,6.6050843 2.0269355,6.5187192 1.9912308,6.0922223 1.5719156,5.839715 1.1636228,5.9988663 1.1440203,6.0065768 1.120295,5.9806184 1.0539498,5.8790895 0.97385945,5.7564683 0.7857218,5.4023379 0.7857218,5.3743148 c 0,-0.00771 0.407896,-0.013022 0.9570158,-0.013022 h 0.957008 z M 4.5079625,5.3795921 c 8.56e-5,0.010537 0.016258,0.053116 0.036093,0.095506 0.044417,0.095403 0.1626155,0.2225909 0.2499091,0.2688876 0.036016,0.019105 0.065498,0.042322 0.065498,0.051489 0,0.03384 -0.089013,0.4076235 -0.1332583,0.5594928 C 4.5614028,6.9208426 4.3230064,7.3282007 4.0943491,7.4346729 3.9967331,7.4800785 3.9345651,7.4800785 3.837307,7.434887 3.515421,7.2850481 3.206121,6.5861681 3.0427277,5.6395614 3.0183801,5.4985552 2.9983887,5.37823 2.9983887,5.372173 c -3.11e-5,-0.006 0.3395749,-0.011051 0.754643,-0.011051 0.5938944,0 0.7546975,0.00428 0.7548141,0.018334 z m 2.6375206,-0.00857 c 0,0.019618 -0.1734046,0.3536593 -0.234787,0.4522754 C 6.6379098,6.2616713 6.2141529,6.6854011 5.7756707,6.9581353 5.6220397,7.0537529 5.354224,7.1846756 5.173904,7.2524587 c -0.1598695,0.060055 -0.5226952,0.160197 -0.5804838,0.160197 -0.029793,0 -0.029948,-6.598e-4 -0.00312,-0.040264 C 4.8254224,7.0195273 4.9993327,6.560184 5.130234,5.9461357 L 5.153959,5.8348317 5.245072,5.8095587 C 5.4411753,5.7549862 5.5824302,5.6352007 5.6597202,5.4578099 l 0.042006,-0.096346 h 0.7220966 c 0.3971458,0 0.722081,0.00428 0.722081,0.00942 z M 1.5641757,6.28147 C 1.8094407,6.4095912 1.784992,6.7650324 1.524037,6.864668 1.3149357,6.9445136 1.0810199,6.7698985 1.0967019,6.5456885 1.1085257,6.3759653 1.2502162,6.2405363 1.4158577,6.2405363 c 0.048073,0 0.094364,0.012765 0.1482946,0.040951 z"
       fill="#8e2424"
       id="path9"
       style="stroke-width:0.277707" />
  </g>
</svg>
